<svg version="1" xmlns="http://www.w3.org/2000/svg" width="682.667" height="682.667" viewBox="0 0 512.000000 512.000000"><path d="M113 .7C92.9 2.9 70.1 11.6 53.6 23.4 27.2 42.3 7.8 73.2 1.9 106c-2 11.1-2 288.9 0 300 8.2 45.7 40.3 83.9 83.1 98.8 20.4 7.1 9.2 6.7 171 6.7s150.6.4 171-6.7c42.8-14.9 74.9-53.1 83.1-98.8 2-11.1 2-288.9 0-300-4.8-26.6-19.6-54.1-38.3-71.5C454.5 18.5 436 8.7 412 2.7 403.6.6 402.5.6 260 .4c-78.9 0-145.1.1-147 .3zm163 68.2c24.8 4.5 49.1 14.2 68.2 27 35.4 23.9 59.3 58 71.3 101.7 5.8 21.3 7 31 7 57.9-.1 25.7-.9 32.6-6.2 53-18.8 72.3-76.3 123.3-149.9 133-9.1 1.2-23.7 1.5-71 1.5H136V65.9l63.8.3c61.2.4 64.2.5 76.2 2.7z"/><path d="M210 254.5V379h11.4c72.1 0 111.9-30.2 123.1-93.5 4-22.2 2.7-55-2.9-76.6-14-53.3-53.8-78.7-123.8-78.9H210v124.5z"/></svg>